<?xml version="1.0" encoding="UTF-8" standalone="no"?>
<svg
   width="64"
   height="64"
   version="1.1"
   id="svg34"
   sodipodi:docname="mxrm-icon.svg"
   inkscape:version="1.2.2 (732a01da63, 2022-12-09)"
   inkscape:export-filename="mxrm-icon.png"
   inkscape:export-xdpi="96"
   inkscape:export-ydpi="96"
   xmlns:inkscape="http://www.inkscape.org/namespaces/inkscape"
   xmlns:sodipodi="http://sodipodi.sourceforge.net/DTD/sodipodi-0.dtd"
   xmlns="http://www.w3.org/2000/svg"
   xmlns:svg="http://www.w3.org/2000/svg">
  <defs
     id="defs38">
    <clipPath
       clipPathUnits="userSpaceOnUse"
       id="clipPath3807">
      <rect
         style="opacity:0.2;fill:#ffffff;fill-opacity:1;stroke:#cacdd0;stroke-width:0;stroke-linecap:round;stroke-miterlimit:0;paint-order:fill markers stroke"
         id="rect3809"
         width="32"
         height="15.999999"
         x="-5.5555567e-08"
         y="-2.5225484e-08" />
    </clipPath>
  </defs>
  <sodipodi:namedview
     id="namedview36"
     pagecolor="#ffffff"
     bordercolor="#000000"
     borderopacity="0.25"
     inkscape:showpageshadow="2"
     inkscape:pageopacity="0.0"
     inkscape:pagecheckerboard="0"
     inkscape:deskcolor="#d1d1d1"
     showgrid="true"
     inkscape:window-width="1280"
     inkscape:window-height="971"
     inkscape:window-x="1912"
     inkscape:window-y="48"
     inkscape:window-maximized="1"
     inkscape:current-layer="svg34">
    <inkscape:grid
       type="xygrid"
       id="grid163" />
  </sodipodi:namedview>
  <rect
     style="opacity:0.2"
     width="56"
     height="56"
     x="4"
     y="5"
     rx="2.8"
     ry="2.8"
     id="rect2" />
  <rect
     style="display:inline;fill:#cacdd0;fill-opacity:1;stroke-width:1.11555"
     width="56"
     height="56"
     x="4"
     y="4"
     rx="3.4844444"
     ry="2.8"
     id="rect4" />
  <rect
     style="opacity:1;fill:#29353b;fill-opacity:1;stroke-width:1.41421"
     width="36"
     height="4"
     x="20"
     y="49"
     id="rect22-2" />
  <rect
     style="opacity:1;fill:#29353b;fill-opacity:1;stroke:#cacdd0;stroke-width:0;stroke-linecap:round;stroke-miterlimit:0;paint-order:fill markers stroke"
     id="rect1946-3-7"
     width="5.999999"
     height="5.9999995"
     x="8.000001"
     y="48" />
  <path
     style="fill:#29353b;fill-opacity:1;stroke-width:0.845154"
     d="M 60,6.000571 C 60,4.8925714 58.7504,4 57.1992,4 H 6.801 C 5.25,4 4,4.8925714 4,6.000571 V 14 h 56 z"
     id="path6" />
  <rect
     style="opacity:1;fill:#0f56d9;fill-opacity:1;stroke-width:1.69032"
     width="56"
     height="10"
     x="4"
     y="20"
     id="rect26" />
  <rect
     style="opacity:1;fill:#29353b;fill-opacity:1;stroke-width:1.41422"
     width="36"
     height="4"
     x="20"
     y="36"
     id="rect22" />
  <rect
     style="opacity:1;fill:#ffffff;fill-opacity:1;stroke-width:1.41421"
     width="36"
     height="4"
     x="20"
     y="23"
     id="rect22-5" />
  <rect
     style="opacity:1;fill:#29353b;fill-opacity:1;stroke:#cacdd0;stroke-width:0;stroke-linecap:round;stroke-miterlimit:0;paint-order:fill markers stroke"
     id="rect1946"
     width="5.999999"
     height="5.999999"
     x="8"
     y="35" />
  <rect
     style="opacity:1;fill:#ffffff;fill-opacity:1;stroke:#cacdd0;stroke-width:0;stroke-linecap:round;stroke-miterlimit:0;paint-order:fill markers stroke"
     id="rect1946-3-6"
     width="5.999999"
     height="5.999999"
     x="8"
     y="22" />
  <path
     style="display:inline;opacity:0.2;fill-rule:evenodd;stroke-width:1.14286"
     d="M 63.94743,46.906298 A 16,16.000009 0 0 1 48,61.857168 16,16.000009 0 0 1 32.05257,47.093728 16,16.000009 0 0 0 32,48.142878 a 16,16.000009 0 0 0 16,16 16,16.000009 0 0 0 16,-16 16,16.000009 0 0 0 -0.0526,-1.23658 z"
     id="path8" />
  <ellipse
     style="display:inline;fill:#ff5800;fill-opacity:1;fill-rule:evenodd;stroke-width:1.14286"
     cx="48"
     cy="47.000008"
     id="circle14"
     rx="16"
     ry="16.000008" />
  <path
     style="display:inline;fill:#ffffff;stroke-width:1.14286"
     d="m 45.71429,37.857158 -0.2016,2.40823 a 7.1837714,7.1837751 0 0 0 -2.09948,1.21431 l -2.18878,-1.03063 -2.28571,3.95908 1.98722,1.38012 a 7.1837714,7.1837751 0 0 0 -0.10971,1.21173 7.1837714,7.1837751 0 0 0 0.10446,1.21684 l -1.98215,1.375 2.28571,3.95909 2.18368,-1.02807 a 7.1837714,7.1837751 0 0 0 2.10457,1.20662 l 0.2016,2.41326 h 4.57143 l 0.2016,-2.40823 a 7.1837714,7.1837751 0 0 0 2.09952,-1.21431 l 2.18876,1.03063 2.28571,-3.95908 -1.98725,-1.38012 a 7.1837714,7.1837751 0 0 0 0.10972,-1.21173 7.1837714,7.1837751 0 0 0 -0.10446,-1.21684 l 1.98215,-1.375 -2.28571,-3.95909 -2.18368,1.02807 a 7.1837714,7.1837751 0 0 0 -2.10515,-1.20685 L 50.2856,37.856468 H 45.71417 Z M 48,44.387898 a 2.6123429,2.6123443 0 0 1 2.61257,2.61258 A 2.6123429,2.6123443 0 0 1 48,49.613048 2.6123429,2.6123443 0 0 1 45.38743,47.000478 2.6123429,2.6123443 0 0 1 48,44.387898 Z"
     id="path16" />
  <path
     style="fill:#0f56d9;fill-opacity:1;stroke-width:0.845154"
     d="M 60,7.000571 C 60,5.8925714 58.7504,5 57.1992,5 H 6.801 C 5.25,5 4,5.8925714 4,7.000571 V 15 h 56 z"
     id="path3751"
     clip-path="url(#clipPath3807)"
     transform="translate(0,-1)" />
</svg>
